<?xml version="1.0" standalone="no"?>
<!DOCTYPE svg PUBLIC "-//W3C//DTD SVG 20010904//EN"
 "http://www.w3.org/TR/2001/REC-SVG-20010904/DTD/svg10.dtd">
<svg version="1.0" xmlns="http://www.w3.org/2000/svg"
 width="1280.000000pt" height="640.000000pt" viewBox="0 0 1280.000000 640.000000"
 preserveAspectRatio="xMidYMid meet">
<metadata>
Created by potrace 1.15, written by Peter Selinger 2001-2017
</metadata>
<g transform="translate(0.000000,640.000000) scale(0.100000,-0.100000)"
fill="#000000" stroke="none">
<path d="M6239 5995 c-300 -47 -627 -171 -969 -368 -153 -88 -306 -185 -380
-241 -77 -58 -133 -85 -177 -86 -168 -1 -21 446 186 568 34 20 41 28 27 30
-30 6 -138 -54 -191 -107 l-49 -49 -24 18 c-72 57 -250 73 -338 30 -38 -19
-54 -35 -71 -70 -27 -54 -29 -103 -6 -125 31 -32 125 -3 157 48 17 26 -4 50
-55 63 l-44 12 30 12 c104 43 193 50 242 20 38 -23 51 -46 59 -103 11 -81 -51
-258 -131 -369 -19 -26 -35 -52 -35 -58 0 -5 -22 -31 -50 -59 -143 -143 -461
-340 -670 -415 -116 -42 -237 -47 -283 -12 -17 14 -16 18 22 79 23 35 41 68
41 73 0 5 -33 -23 -72 -62 -40 -39 -86 -81 -102 -92 -32 -25 -78 -29 -94 -9
-6 7 -12 53 -14 103 l-3 89 -19 -55 c-29 -86 -58 -150 -67 -150 -5 0 -12 12
-15 27 l-7 26 -19 -36 c-44 -87 -258 -207 -448 -252 -88 -20 -126 -19 -150 5
-28 28 -13 60 76 160 94 105 125 150 169 243 51 105 67 177 68 292 1 261 -137
494 -393 663 l-65 43 -38 -43 c-51 -56 -111 -184 -134 -283 -24 -109 -24 -320
1 -430 37 -162 105 -310 182 -395 48 -53 41 -128 -18 -196 -101 -114 -338
-154 -758 -125 -91 6 -224 14 -296 18 l-132 6 25 55 c13 31 47 130 74 221 130
432 195 589 288 693 58 64 136 108 192 108 34 0 38 -3 44 -32 21 -96 124 -166
156 -106 14 27 5 112 -16 144 -37 56 -145 86 -222 60 -72 -24 -140 -90 -270
-263 -164 -218 -201 -236 -276 -130 -10 14 -27 19 -67 20 -64 2 -74 -12 -32
-51 27 -25 54 -37 129 -57 18 -5 23 -16 29 -63 43 -336 -72 -528 -360 -602
-108 -27 -296 -40 -602 -40 l-274 0 0 -230 0 -230 428 0 427 0 50 -26 c74 -39
141 -90 224 -169 71 -68 131 -139 131 -157 0 -4 -61 -8 -136 -8 -135 0 -138 0
-208 -34 -86 -42 -159 -103 -188 -160 -66 -125 14 -277 168 -322 92 -26 170
11 214 101 18 37 19 48 9 67 -28 53 -50 50 -146 -15 -87 -60 -117 -71 -147
-55 -137 70 -95 243 80 329 54 27 81 33 150 37 79 4 89 3 149 -27 106 -52 155
-142 155 -286 0 -131 -64 -303 -147 -395 -54 -61 -95 -88 -178 -120 -81 -32
-261 -35 -345 -6 -112 38 -181 86 -226 157 -17 27 -36 41 -70 53 -51 17 -100
21 -108 8 -19 -31 103 -139 221 -198 64 -31 87 -37 210 -49 253 -26 267 -39
189 -174 -65 -111 -79 -160 -80 -271 -1 -82 3 -102 24 -144 33 -65 66 -88 135
-94 75 -6 137 13 190 60 78 68 82 139 13 207 -36 35 -125 85 -132 73 -2 -4 18
-46 45 -92 80 -138 77 -172 -22 -204 -111 -35 -181 -9 -211 79 -62 181 62 467
240 552 17 8 66 51 108 96 58 62 86 102 124 181 27 55 57 133 66 171 23 94 24
269 1 355 -38 143 -124 276 -231 359 -59 46 -78 83 -55 106 22 23 124 43 269
55 74 6 181 17 238 25 186 27 261 16 323 -46 106 -106 60 -338 -125 -621 -130
-200 -220 -499 -233 -773 -12 -261 47 -467 185 -649 25 -34 165 -180 311 -326
271 -270 319 -325 388 -440 81 -135 93 -201 63 -363 -11 -65 -18 -122 -15
-127 16 -26 80 -4 335 117 166 79 224 117 327 216 111 106 190 218 278 392
186 368 276 826 230 1170 -68 511 -288 905 -633 1136 -286 191 -580 281 -970
298 -137 6 -147 7 -147 26 0 51 107 84 468 141 249 39 329 56 404 84 104 39
242 61 418 67 230 8 354 -13 446 -74 52 -34 84 -100 75 -155 -8 -47 -54 -140
-94 -188 l-27 -32 -110 66 c-60 36 -111 63 -114 61 -2 -3 2 -11 11 -18 197
-158 208 -169 208 -202 0 -88 61 -319 101 -385 15 -25 22 -54 24 -105 2 -44
20 -136 48 -245 56 -215 122 -516 137 -630 24 -172 -18 -346 -114 -480 -48
-67 -71 -114 -94 -195 -41 -138 -37 -246 14 -455 35 -147 41 -228 20 -284 -27
-71 -110 -135 -214 -167 -43 -12 -70 -33 -55 -42 30 -19 204 90 259 161 l34
45 0 -39 c0 -64 -28 -163 -69 -245 -73 -146 -74 -182 -4 -260 32 -35 37 -37
61 -27 47 20 47 27 -4 49 -104 45 -119 91 -60 188 47 76 71 142 86 230 15 91
8 170 -32 361 -35 171 -46 340 -28 432 15 80 66 191 125 274 63 88 81 134 95
241 22 173 -10 386 -125 838 -25 99 -48 209 -52 244 -6 61 -5 64 13 57 66 -26
102 -10 90 39 -9 37 -41 50 -73 30 -30 -20 -32 -18 -71 60 -49 98 -65 166 -60
264 4 82 8 94 67 220 51 106 65 147 69 196 9 120 -43 212 -149 263 l-60 29
105 27 c248 65 409 146 836 421 246 158 315 200 416 255 l62 34 53 -23 c85
-36 86 -36 57 -4 -34 35 -36 68 -5 87 29 19 297 118 452 166 197 62 273 75
430 74 124 0 148 -3 213 -26 99 -36 157 -75 244 -166 81 -86 120 -150 143
-237 31 -123 16 -232 -52 -375 -39 -81 -58 -107 -137 -185 -129 -127 -244
-190 -402 -221 -239 -45 -456 24 -564 181 -50 73 -73 158 -68 257 4 74 9 96
40 160 70 140 207 239 383 274 218 44 399 -26 465 -182 40 -93 20 -214 -46
-276 -56 -52 -118 -71 -227 -70 -87 0 -98 -2 -108 -20 -21 -39 -4 -51 61 -44
117 13 254 71 314 131 55 54 70 91 70 165 0 83 -26 142 -95 215 -93 98 -180
136 -309 136 -297 -2 -572 -216 -622 -486 -13 -76 -1 -160 34 -229 33 -65 115
-138 205 -183 122 -62 207 -78 398 -78 189 0 251 13 395 82 77 37 109 60 171
122 63 62 84 93 121 171 61 129 72 182 65 327 -9 206 -62 343 -180 469 -128
137 -319 228 -542 260 -57 7 -75 18 -75 44 0 43 135 118 290 161 70 19 110 23
225 24 131 0 144 -2 195 -26 87 -42 116 -77 139 -173 31 -127 96 -183 130
-110 16 37 13 103 -8 149 -20 46 -79 102 -116 111 -50 12 -11 24 81 24 233 0
548 -80 743 -189 48 -26 161 -130 161 -146 -1 -11 -75 -67 -240 -181 -162
-111 -282 -233 -342 -349 -25 -50 -55 -120 -67 -157 -25 -83 -51 -228 -51
-286 0 -25 -5 -44 -12 -46 -173 -50 -203 -108 -85 -165 114 -56 228 -75 432
-75 163 0 189 3 279 27 349 94 529 323 488 619 -19 134 -52 190 -209 347 -74
73 -141 144 -150 157 -22 34 -10 68 32 88 l35 17 82 -58 c110 -76 326 -238
523 -392 516 -404 796 -617 915 -697 316 -213 651 -381 1094 -548 160 -61 248
-81 426 -96 298 -25 397 -60 454 -160 30 -53 31 -60 30 -162 l-2 -108 42 0
c87 0 87 36 -4 219 -88 177 -90 211 -15 189 16 -4 59 -8 95 -8 83 0 171 -21
214 -51 40 -27 82 -88 99 -144 14 -48 13 -408 -2 -447 -6 -17 -20 -27 -41 -31
-70 -14 -112 -96 -90 -176 38 -141 187 -242 336 -227 56 6 66 4 99 -18 56 -39
100 -49 185 -44 229 13 472 253 497 489 12 117 -48 254 -120 278 -28 10 -49 9
-102 -4 -90 -20 -103 -19 -117 10 -6 14 -19 25 -28 25 -31 0 -314 98 -429 149
-163 72 -231 119 -231 160 0 18 38 31 122 42 173 22 251 89 304 264 24 79 24
263 0 354 -41 154 -119 238 -193 210 l-24 -9 45 -52 c25 -29 61 -84 81 -123
124 -251 67 -479 -143 -578 l-67 -32 -310 -3 c-534 -6 -761 24 -1125 146 -291
98 -800 336 -1000 469 -113 75 -397 287 -469 350 -79 70 -46 69 97 -1 167 -83
339 -158 435 -190 295 -99 504 -83 626 49 42 46 91 135 91 166 0 18 -338 279
-361 279 -4 0 -10 -11 -13 -25 -7 -27 -59 -65 -89 -65 -10 0 -31 7 -46 15 -26
13 -32 12 -67 -6 -87 -45 -185 6 -201 104 -7 47 2 79 32 115 23 27 23 31 7 37
-34 14 -192 18 -254 6 -35 -7 -108 -32 -163 -56 -128 -55 -171 -66 -259 -66
-160 -1 -253 51 -574 316 l-73 60 98 6 c209 14 391 109 459 241 26 49 30 149
9 203 -55 146 -215 189 -215 58 0 -35 16 -51 33 -34 29 29 115 0 136 -46 15
-32 14 -51 -5 -107 -22 -63 -99 -145 -176 -187 -61 -33 -67 -34 -173 -34 -103
0 -118 3 -233 42 -68 24 -230 94 -360 157 -279 134 -354 164 -522 205 -254 63
-486 91 -730 90 -96 -1 -214 -7 -261 -14z m-2371 -2642 c3 -17 -2 -23 -16 -23
-39 0 -53 10 -41 32 14 26 53 20 57 -9z m8381 -3 c28 -5 90 -28 137 -51 l87
-41 63 12 c110 21 181 -8 216 -87 41 -94 5 -263 -86 -401 -72 -108 -131 -153
-256 -192 -87 -28 -110 -32 -165 -27 -63 6 -113 24 -148 55 -14 12 -22 13 -43
4 -91 -42 -280 42 -334 148 -42 82 -20 151 65 206 33 21 55 42 55 53 0 32 32
115 62 158 52 77 176 150 289 172 4 0 29 -3 58 -9z"/>
<path d="M12290 3011 c0 -5 25 -15 55 -21 43 -9 64 -9 92 1 33 10 35 13 18 20
-29 11 -165 11 -165 0z"/>
<path d="M12210 2975 c0 -22 100 -131 130 -142 26 -10 60 -6 60 6 0 12 -49 74
-73 94 -28 22 -93 57 -107 57 -5 0 -10 -7 -10 -15z"/>
<path d="M12136 2922 c-7 -11 27 -78 58 -117 21 -25 28 -28 43 -19 25 16 18
43 -25 87 -42 44 -68 61 -76 49z"/>
</g>
</svg>
